<mxfile host="65bd71144e">
    <diagram id="gFyoA3gLfdWwSc31E-T2" name="Page-1">
        <mxGraphModel dx="1489" dy="1031" grid="1" gridSize="10" guides="1" tooltips="1" connect="1" arrows="1" fold="1" page="1" pageScale="1" pageWidth="1169" pageHeight="827" background="#F4F1DE" math="0" shadow="0">
            <root>
                <mxCell id="0"/>
                <mxCell id="1" parent="0"/>
                <mxCell id="198" value="" style="group" vertex="1" connectable="0" parent="1">
                    <mxGeometry x="90" y="80" width="1000" height="649.31" as="geometry"/>
                </mxCell>
                <mxCell id="168" value="&lt;span id=&quot;docs-internal-guid-0495e3b1-7fff-c8d6-1d70-55445d6faae8&quot;&gt;&lt;b&gt;&lt;br&gt;&lt;/b&gt;&lt;p dir=&quot;ltr&quot; style=&quot;line-height: 1.38 ; margin-top: 0pt ; margin-bottom: 0pt&quot;&gt;&lt;span style=&quot;font-size: 11pt ; font-family: &amp;#34;arial&amp;#34; ; color: rgb(0 , 0 , 0) ; background-color: transparent ; vertical-align: baseline&quot;&gt;&lt;b&gt;An artist can have many albums.(1 to many)&lt;/b&gt;&lt;/span&gt;&lt;/p&gt;&lt;p dir=&quot;ltr&quot; style=&quot;line-height: 1.38 ; margin-top: 0pt ; margin-bottom: 0pt&quot;&gt;&lt;span style=&quot;font-size: 11pt ; font-family: &amp;#34;arial&amp;#34; ; color: rgb(0 , 0 , 0) ; background-color: transparent ; vertical-align: baseline&quot;&gt;&lt;b&gt;A buyer can have many albums or songs(1 to many)&lt;/b&gt;&lt;/span&gt;&lt;/p&gt;&lt;p dir=&quot;ltr&quot; style=&quot;line-height: 1.38 ; margin-top: 0pt ; margin-bottom: 0pt&quot;&gt;&lt;span style=&quot;font-size: 11pt ; font-family: &amp;#34;arial&amp;#34; ; color: rgb(0 , 0 , 0) ; background-color: transparent ; vertical-align: baseline&quot;&gt;&lt;b&gt;A Seller can have many albums or songs (1 to many)&lt;/b&gt;&lt;/span&gt;&lt;/p&gt;&lt;p dir=&quot;ltr&quot; style=&quot;line-height: 1.38 ; margin-top: 0pt ; margin-bottom: 0pt&quot;&gt;&lt;span style=&quot;font-size: 11pt ; font-family: &amp;#34;arial&amp;#34; ; color: rgb(0 , 0 , 0) ; background-color: transparent ; vertical-align: baseline&quot;&gt;&lt;b&gt;A Owner can be buyer, seller or artist, so okay,&lt;/b&gt;&lt;/span&gt;&lt;/p&gt;&lt;p dir=&quot;ltr&quot; style=&quot;line-height: 1.38 ; margin-top: 0pt ; margin-bottom: 0pt&quot;&gt;&lt;span style=&quot;font-size: 11pt ; font-family: &amp;#34;arial&amp;#34; ; color: rgb(0 , 0 , 0) ; background-color: transparent ; vertical-align: baseline&quot;&gt;&lt;b&gt;An album can have many album copies, Each album copies can have many songs (Remove storage deposit thing )&lt;/b&gt;&lt;/span&gt;&lt;/p&gt;&lt;p dir=&quot;ltr&quot; style=&quot;line-height: 1.38 ; margin-top: 0pt ; margin-bottom: 0pt&quot;&gt;&lt;span style=&quot;font-size: 11pt ; font-family: &amp;#34;arial&amp;#34; ; color: rgb(0 , 0 , 0) ; background-color: transparent ; vertical-align: baseline&quot;&gt;&lt;b&gt;A Market can have many Songs / Albums&lt;/b&gt;&lt;/span&gt;&lt;/p&gt;&lt;p dir=&quot;ltr&quot; style=&quot;line-height: 1.38 ; margin-top: 0pt ; margin-bottom: 0pt&quot;&gt;&lt;b&gt;1 to 1 relationship NFT metadata between&lt;/b&gt;&lt;/p&gt;&lt;div&gt;&lt;span style=&quot;font-size: 11pt ; font-family: &amp;#34;arial&amp;#34; ; color: rgb(0 , 0 , 0) ; background-color: transparent ; vertical-align: baseline&quot;&gt;&lt;br&gt;&lt;/span&gt;&lt;/div&gt;&lt;/span&gt;" style="rounded=0;whiteSpace=wrap;html=1;fontColor=#393C56;strokeColor=#E07A5F;strokeWidth=1;fillColor=#F2CC8F;sketch=1;" parent="198" vertex="1">
                    <mxGeometry x="650" y="379.31" width="328.79" height="270" as="geometry"/>
                </mxCell>
                <mxCell id="4" value="&lt;b&gt;0&lt;/b&gt;" style="whiteSpace=wrap;html=1;fontColor=#393C56;strokeColor=#E07A5F;fillColor=#F2CC8F;strokeWidth=1;arcSize=12;rounded=1;sketch=1;" parent="198" vertex="1">
                    <mxGeometry x="210.06627065673538" y="41.378620689655165" width="52.516567664183846" height="41.37931034482758" as="geometry"/>
                </mxCell>
                <mxCell id="5" value="&lt;b&gt;1&lt;/b&gt;" style="whiteSpace=wrap;html=1;fontColor=#393C56;strokeColor=#E07A5F;fillColor=#F2CC8F;strokeWidth=1;arcSize=12;rounded=1;sketch=1;" parent="198" vertex="1">
                    <mxGeometry x="262.58642229312085" y="41.378620689655165" width="52.516567664183846" height="41.37931034482758" as="geometry"/>
                </mxCell>
                <mxCell id="10" value="Song 1 IPFS hash" style="whiteSpace=wrap;html=1;fontColor=#393C56;strokeColor=#E07A5F;fillColor=#F2CC8F;strokeWidth=1;arcSize=12;rounded=1;sketch=1;" parent="198" vertex="1">
                    <mxGeometry x="770.2429924080299" y="62.06862068965518" width="227.57179321146336" height="41.37931034482758" as="geometry"/>
                </mxCell>
                <mxCell id="23" value="" style="group;fontColor=#393C56;strokeWidth=1;arcSize=12;rounded=1;sketch=1;" parent="198" vertex="1" connectable="0">
                    <mxGeometry y="20.689310344827575" width="210.06627065673538" height="165.51724137931032" as="geometry"/>
                </mxCell>
                <mxCell id="2" value="&lt;b&gt;&lt;font style=&quot;font-size: 19px&quot;&gt;Album IPFS hash&lt;/font&gt;&lt;/b&gt;" style="whiteSpace=wrap;html=1;fontColor=#393C56;strokeColor=#E07A5F;fillColor=#F2CC8F;strokeWidth=1;arcSize=12;rounded=1;sketch=1;" parent="23" vertex="1">
                    <mxGeometry width="210.06627065673538" height="124.13793103448273" as="geometry"/>
                </mxCell>
                <mxCell id="18" value="&lt;b&gt;&lt;font style=&quot;font-size: 17px&quot;&gt;Creator&lt;/font&gt;&lt;/b&gt;" style="whiteSpace=wrap;html=1;fontColor=#393C56;strokeColor=#E07A5F;fillColor=#F2CC8F;strokeWidth=1;arcSize=12;rounded=1;sketch=1;" parent="23" vertex="1">
                    <mxGeometry y="124.13793103448273" width="210.06627065673538" height="41.37931034482758" as="geometry"/>
                </mxCell>
                <mxCell id="37" value="0" style="whiteSpace=wrap;html=1;fontColor=#393C56;strokeColor=#E07A5F;fillColor=#F2CC8F;strokeWidth=1;arcSize=12;rounded=1;sketch=1;" parent="198" vertex="1">
                    <mxGeometry x="717.726424743846" y="62.06862068965518" width="52.516567664183846" height="41.37931034482758" as="geometry"/>
                </mxCell>
                <mxCell id="70" value="1" style="whiteSpace=wrap;html=1;fontColor=#393C56;strokeColor=#E07A5F;fillColor=#F2CC8F;strokeWidth=1;arcSize=12;rounded=1;sketch=1;" parent="198" vertex="1">
                    <mxGeometry x="116.28862524283842" y="499.31206896551714" width="56.01767217512945" height="41.37931034482758" as="geometry"/>
                </mxCell>
                <mxCell id="73" value="&lt;b&gt;2&lt;/b&gt;" style="whiteSpace=wrap;html=1;fontColor=#393C56;strokeColor=#E07A5F;fillColor=#F2CC8F;strokeWidth=1;arcSize=12;rounded=1;sketch=1;" parent="198" vertex="1">
                    <mxGeometry x="315.10657392950617" y="41.378620689655165" width="52.516567664183846" height="41.37931034482758" as="geometry"/>
                </mxCell>
                <mxCell id="77" value="" style="group;fontColor=#393C56;strokeWidth=1;arcSize=12;rounded=1;sketch=1;" parent="198" vertex="1" connectable="0">
                    <mxGeometry x="507.6601540871107" y="41.37896551724137" width="210.06627065673538" height="165.51724137931032" as="geometry"/>
                </mxCell>
                <mxCell id="78" value="&lt;b&gt;Album IPFS hash&lt;/b&gt;" style="whiteSpace=wrap;html=1;fontColor=#393C56;strokeColor=#E07A5F;fillColor=#F2CC8F;strokeWidth=1;arcSize=12;rounded=1;sketch=1;" parent="77" vertex="1">
                    <mxGeometry width="210.06627065673538" height="124.13793103448273" as="geometry"/>
                </mxCell>
                <mxCell id="79" value="&lt;b&gt;Creator&lt;/b&gt;" style="whiteSpace=wrap;html=1;fontColor=#393C56;strokeColor=#E07A5F;fillColor=#F2CC8F;strokeWidth=1;arcSize=12;rounded=1;sketch=1;" parent="77" vertex="1">
                    <mxGeometry y="124.13793103448273" width="210.06627065673538" height="41.37931034482758" as="geometry"/>
                </mxCell>
                <mxCell id="81" value="" style="group;strokeWidth=1;arcSize=12;rounded=1;sketch=1;fontColor=#393C56;" parent="198" vertex="1" connectable="0">
                    <mxGeometry x="717.726424743846" y="103.44793103448274" width="280.08836087564725" height="41.37931034482758" as="geometry"/>
                </mxCell>
                <mxCell id="11" value="Song 2 IPFS hash" style="whiteSpace=wrap;html=1;fontColor=#393C56;strokeColor=#E07A5F;fillColor=#F2CC8F;strokeWidth=1;arcSize=12;rounded=1;sketch=1;" parent="81" vertex="1">
                    <mxGeometry x="52.516567664183846" width="227.57179321146336" height="41.37931034482758" as="geometry"/>
                </mxCell>
                <mxCell id="39" value="1" style="whiteSpace=wrap;html=1;fontColor=#393C56;strokeColor=#E07A5F;fillColor=#F2CC8F;strokeWidth=1;arcSize=12;rounded=1;sketch=1;" parent="81" vertex="1">
                    <mxGeometry width="52.516567664183846" height="41.37931034482758" as="geometry"/>
                </mxCell>
                <mxCell id="82" value="" style="group;strokeWidth=1;arcSize=12;rounded=1;sketch=1;fontColor=#393C56;" parent="198" vertex="1" connectable="0">
                    <mxGeometry x="717.726424743846" y="144.82724137931032" width="282.27357525615395" height="41.37931034482758" as="geometry"/>
                </mxCell>
                <mxCell id="44" value="2" style="whiteSpace=wrap;html=1;fontColor=#393C56;strokeColor=#E07A5F;fillColor=#F2CC8F;strokeWidth=1;arcSize=12;rounded=1;sketch=1;" parent="82" vertex="1">
                    <mxGeometry width="49.890739280974664" height="41.373913043478254" as="geometry"/>
                </mxCell>
                <mxCell id="12" value="Song 3 IPFS hash" style="whiteSpace=wrap;html=1;fontColor=#393C56;strokeColor=#E07A5F;fillColor=#F2CC8F;strokeWidth=1;arcSize=12;rounded=1;sketch=1;" parent="82" vertex="1">
                    <mxGeometry x="50.32540140600856" width="231.94817385014537" height="41.37931034482758" as="geometry"/>
                </mxCell>
                <mxCell id="89" value="Owner 1" style="whiteSpace=wrap;html=1;fontColor=#393C56;strokeColor=#E07A5F;fillColor=#F2CC8F;strokeWidth=1;arcSize=12;rounded=1;sketch=1;" parent="198" vertex="1">
                    <mxGeometry x="222.8970118930892" y="279.3141379310344" width="70.02209021891181" height="41.37931034482758" as="geometry"/>
                </mxCell>
                <mxCell id="90" value="Owner 2" style="whiteSpace=wrap;html=1;fontColor=#393C56;strokeColor=#E07A5F;fillColor=#F2CC8F;strokeWidth=1;arcSize=12;rounded=1;sketch=1;" parent="198" vertex="1">
                    <mxGeometry x="222.8929055360511" y="320.69" width="70.02713632189153" height="38.62" as="geometry"/>
                </mxCell>
                <mxCell id="91" value="Owner 1" style="whiteSpace=wrap;html=1;fontColor=#393C56;strokeColor=#E07A5F;fillColor=#F2CC8F;strokeWidth=1;arcSize=12;rounded=1;sketch=1;" parent="198" vertex="1">
                    <mxGeometry x="222.8970118930892" y="358.62275862068964" width="70.02209021891181" height="41.37931034482758" as="geometry"/>
                </mxCell>
                <mxCell id="103" value="Bundle / Copy" style="text;html=1;strokeColor=none;fillColor=none;align=center;verticalAlign=middle;whiteSpace=wrap;rounded=0;fontColor=#393C56;sketch=1;" parent="198" vertex="1">
                    <mxGeometry x="46.26905807541647" y="279.31" width="70.02209021891181" height="41.37931034482758" as="geometry"/>
                </mxCell>
                <mxCell id="104" value="Bundle / Copy" style="text;html=1;strokeColor=none;fillColor=none;align=center;verticalAlign=middle;whiteSpace=wrap;rounded=0;fontColor=#393C56;sketch=1;" parent="198" vertex="1">
                    <mxGeometry x="253.83545300185762" width="70.02209021891181" height="41.37931034482758" as="geometry"/>
                </mxCell>
                <mxCell id="105" value="Bundle / Copy" style="text;html=1;strokeColor=none;fillColor=none;align=center;verticalAlign=middle;whiteSpace=wrap;rounded=0;fontColor=#393C56;sketch=1;" parent="198" vertex="1">
                    <mxGeometry x="308.0999838989598" width="70.02209021891181" height="41.37931034482758" as="geometry"/>
                </mxCell>
                <mxCell id="166" value="NFT" style="text;html=1;strokeColor=none;fillColor=none;align=center;verticalAlign=middle;whiteSpace=wrap;rounded=0;fontColor=#393C56;sketch=1;fontStyle=1" parent="198" vertex="1">
                    <mxGeometry x="297.60556432556234" y="279.30482758620695" width="70.02209021891181" height="41.37931034482758" as="geometry"/>
                </mxCell>
                <mxCell id="170" style="edgeStyle=orthogonalEdgeStyle;rounded=0;orthogonalLoop=1;jettySize=auto;html=1;exitX=1;exitY=0.75;exitDx=0;exitDy=0;entryX=1;entryY=0.5;entryDx=0;entryDy=0;sketch=1;strokeColor=#E07A5F;fontColor=#393C56;labelBackgroundColor=#F4F1DE;" parent="198" source="73" target="73" edge="1">
                    <mxGeometry y="-20.689999999999998" as="geometry"/>
                </mxCell>
                <mxCell id="46" value="0" style="whiteSpace=wrap;html=1;fontColor=#393C56;strokeColor=#E07A5F;fillColor=#F2CC8F;strokeWidth=1;arcSize=12;rounded=1;sketch=1;" parent="198" vertex="1">
                    <mxGeometry x="116.28862524283842" y="279.3141379310344" width="56.01767217512945" height="41.37931034482758" as="geometry"/>
                </mxCell>
                <mxCell id="174" value="Bundle / Copy" style="text;html=1;strokeColor=none;fillColor=none;align=center;verticalAlign=middle;whiteSpace=wrap;rounded=0;fontColor=#393C56;sketch=1;" vertex="1" parent="198">
                    <mxGeometry x="201.31025526249255" width="70.02209021891181" height="41.37931034482758" as="geometry"/>
                </mxCell>
                <mxCell id="175" value="Bundle / Copy" style="text;html=1;strokeColor=none;fillColor=none;align=center;verticalAlign=middle;whiteSpace=wrap;rounded=0;fontColor=#393C56;sketch=1;" vertex="1" parent="198">
                    <mxGeometry x="46.26905807541647" y="499.30999999999995" width="70.02209021891181" height="41.37931034482758" as="geometry"/>
                </mxCell>
                <mxCell id="176" value="&lt;b&gt;&lt;font style=&quot;font-size: 17px&quot;&gt;Song Ownership Vector&lt;/font&gt;&lt;/b&gt;" style="text;html=1;strokeColor=none;fillColor=none;align=center;verticalAlign=middle;whiteSpace=wrap;rounded=0;fontColor=#393C56;sketch=1;" vertex="1" parent="198">
                    <mxGeometry x="184.12892196456394" y="231" width="164.74693017882038" height="41.38" as="geometry"/>
                </mxCell>
                <mxCell id="177" value="Owner 3" style="whiteSpace=wrap;html=1;fontColor=#393C56;strokeColor=#E07A5F;fillColor=#F2CC8F;strokeWidth=1;arcSize=12;rounded=1;sketch=1;" vertex="1" parent="198">
                    <mxGeometry x="222.88732089719633" y="499.31413793103434" width="70.02209021891181" height="41.37931034482758" as="geometry"/>
                </mxCell>
                <mxCell id="178" value="Owner 2" style="whiteSpace=wrap;html=1;fontColor=#393C56;strokeColor=#E07A5F;fillColor=#F2CC8F;strokeWidth=1;arcSize=12;rounded=1;sketch=1;" vertex="1" parent="198">
                    <mxGeometry x="222.8832145401582" y="540.6899999999999" width="70.02713632189153" height="38.62" as="geometry"/>
                </mxCell>
                <mxCell id="179" value="Owner 1" style="whiteSpace=wrap;html=1;fontColor=#393C56;strokeColor=#E07A5F;fillColor=#F2CC8F;strokeWidth=1;arcSize=12;rounded=1;sketch=1;" vertex="1" parent="198">
                    <mxGeometry x="222.88732089719633" y="578.6227586206896" width="70.02209021891181" height="41.37931034482758" as="geometry"/>
                </mxCell>
                <mxCell id="180" value="&lt;b&gt;NFT&lt;/b&gt;" style="text;html=1;strokeColor=none;fillColor=none;align=center;verticalAlign=middle;whiteSpace=wrap;rounded=0;fontColor=#393C56;sketch=1;" vertex="1" parent="198">
                    <mxGeometry x="297.60556432556234" y="320.69482758620694" width="70.02209021891181" height="41.37931034482758" as="geometry"/>
                </mxCell>
                <mxCell id="181" value="&lt;b&gt;NFT&lt;/b&gt;" style="text;html=1;strokeColor=none;fillColor=none;align=center;verticalAlign=middle;whiteSpace=wrap;rounded=0;fontColor=#393C56;sketch=1;" vertex="1" parent="198">
                    <mxGeometry x="297.60556432556234" y="358.62482758620695" width="70.02209021891181" height="41.37931034482758" as="geometry"/>
                </mxCell>
                <mxCell id="182" value="&lt;b&gt;NFT&lt;/b&gt;" style="text;html=1;strokeColor=none;fillColor=none;align=center;verticalAlign=middle;whiteSpace=wrap;rounded=0;fontColor=#393C56;sketch=1;" vertex="1" parent="198">
                    <mxGeometry x="297.60556432556234" y="499.3148275862069" width="70.02209021891181" height="41.37931034482758" as="geometry"/>
                </mxCell>
                <mxCell id="183" value="&lt;b&gt;NFT&lt;/b&gt;" style="text;html=1;strokeColor=none;fillColor=none;align=center;verticalAlign=middle;whiteSpace=wrap;rounded=0;fontColor=#393C56;sketch=1;" vertex="1" parent="198">
                    <mxGeometry x="297.60556432556234" y="539.3148275862069" width="70.02209021891181" height="41.37931034482758" as="geometry"/>
                </mxCell>
                <mxCell id="184" value="&lt;b&gt;NFT&lt;/b&gt;" style="text;html=1;strokeColor=none;fillColor=none;align=center;verticalAlign=middle;whiteSpace=wrap;rounded=0;fontColor=#393C56;sketch=1;" vertex="1" parent="198">
                    <mxGeometry x="297.60556432556234" y="580.6948275862069" width="70.02209021891181" height="41.37931034482758" as="geometry"/>
                </mxCell>
                <mxCell id="189" value="&lt;b&gt;Indexes of each owner corresponds to the Song List Vector,&lt;br&gt;So here owner 1 at index 0 owns Song 0 from the&lt;br&gt;bundle 0&lt;/b&gt;" style="rounded=0;whiteSpace=wrap;html=1;sketch=1;fillColor=#F2CC8F;strokeColor=#E07A5F;fontColor=#393C56;" vertex="1" parent="198">
                    <mxGeometry x="407.0218275006151" y="289.31" width="116.29195071446144" height="160" as="geometry"/>
                </mxCell>
                <mxCell id="192" value="&lt;b&gt;&lt;font style=&quot;font-size: 21px&quot;&gt;Vector&lt;/font&gt;&lt;/b&gt;" style="text;html=1;strokeColor=none;fillColor=none;align=center;verticalAlign=middle;whiteSpace=wrap;rounded=0;fontColor=#393C56;sketch=1;" vertex="1" parent="198">
                    <mxGeometry x="794.6608607953535" y="20.689999999999998" width="70.02209021891181" height="41.37931034482758" as="geometry"/>
                </mxCell>
                <mxCell id="193" value="&lt;b&gt;Indexes of each owner corresponds to the Song List Vector,&lt;br&gt;So here owner 2 at index 1 owns Song 2 from the&lt;br&gt;bundle 1&lt;/b&gt;" style="rounded=0;whiteSpace=wrap;html=1;sketch=1;fillColor=#F2CC8F;strokeColor=#E07A5F;fontColor=#393C56;" vertex="1" parent="198">
                    <mxGeometry x="407.0218275006151" y="489.30999999999995" width="125.98294660733322" height="160" as="geometry"/>
                </mxCell>
                <mxCell id="196" value="&lt;b&gt;&lt;font style=&quot;font-size: 17px&quot;&gt;Song Ownership Vector&lt;/font&gt;&lt;/b&gt;" style="text;html=1;strokeColor=none;fillColor=none;align=center;verticalAlign=middle;whiteSpace=wrap;rounded=0;fontColor=#393C56;sketch=1;" vertex="1" parent="198">
                    <mxGeometry x="172.30590697526037" y="447.93000000000006" width="164.74693017882038" height="41.38" as="geometry"/>
                </mxCell>
            </root>
        </mxGraphModel>
    </diagram>
</mxfile>